<svg xmlns="http://www.w3.org/2000/svg" id="Layer_1" data-name="Layer 1" viewBox="116.98 102 326.31 71.84">
  <defs>
    <style>
      .cls-1 {
        stroke-width: 0px;
      }
    </style>
  </defs>
  <path class="cls-1" d="m252.9102,130.48c-.46-1.47-1.1401-2.74-2.02-3.8201-.8804-1.0798-1.9702-1.9399-3.27-2.5701-1.3003-.6299-2.7803-.9497-4.4399-.9497-1.8003,0-3.3804.3599-4.7603,1.0698-1.3799.72-2.5601,1.72-3.52,3.02v-4.0898h-5.3398v28.7397h5.3398v-15.97c0-1.1299.2603-2.1499.77-3.0701.52-.9099,1.1802-1.6899,2-2.3398.8101-.6499,1.71-1.1499,2.6899-1.5s1.9204-.52,2.8203-.52c.9297,0,1.7197.1699,2.3696.52.6504.3501,1.1699.8301,1.5703,1.4199.3999.6001.6899,1.3101.8799,2.1301.1802.8098.27,1.6799.27,2.6199v16.71h5.3398v-16.71c0-1.6699-.23-3.23-.6997-4.6899Z"/>
  <path class="cls-1" d="m283.4502,123.1401l-9.5303,22.4099-9.5298-22.4099h-5.79l12.3696,28.7397h5.8901l12.3701-28.7397h-5.7798Z"/>
  <path class="cls-1" d="m294.2197,123.1401v28.7397h5.3901v-28.7397h-5.3901Z"/>
  <path class="cls-1" d="m327,123.1401v3.5898c-1.1899-1.1299-2.5698-2.01-4.1099-2.6401-1.5503-.6299-3.21-.9497-4.9702-.9497-1.8599,0-3.6001.3499-5.21,1.0498-1.6201.7002-3.02,1.6499-4.2197,2.8701-1.2002,1.21-2.1401,2.6299-2.8403,4.26-.6997,1.6299-1.0498,3.3599-1.0498,5.1899,0,1.8699.3501,5.5999,1.0498,7.22.7002,1.6099,1.6401,3.02,2.8403,4.24,1.1997,1.21,2.5996,2.1702,4.2197,2.8699,1.6099.7002,3.3501,1.04,5.21,1.04,1.7603,0,3.4199-.3098,4.9702-.9399,1.54-.6399,2.9199-1.5,4.1099-2.6001v.8501c0,1.1001-.21,2.1401-.6201,3.1201-.4199.98-.98,1.8398-1.6997,2.5698-.7104.73-1.5601,1.3-2.54,1.7202-.98.4199-2.02.6199-3.1201.6199-1.6299,0-3.0898-.4299-4.3901-1.29-1.2998-.8699-2.2598-2-2.8999-3.3999l-4.6401,2.6499c.54,1.1001,1.2202,2.1001,2.0503,3.02.8296.9099,1.75,1.6902,2.77,2.3401,1.0098.6499,2.1299,1.1499,3.3398,1.5,1.2197.3501,2.4697.52,3.77.52,1.8301,0,3.5601-.3501,5.1899-1.05,1.6299-.6899,3.04-1.6501,4.2402-2.8601,1.1997-1.22,2.1499-2.6299,2.8398-4.25.7002-1.6099,1.0498-3.3499,1.0498-5.21v-26.0498h-5.3398Zm0,15.6699c-.0303,1.0698-.2598,2.0698-.7002,3.02-.4297.95-1.0098,1.77-1.7397,2.47s-1.5698,1.25-2.52,1.6499c-.9502.4001-1.96.6001-3.02.6001-1.1001,0-2.1401-.2102-3.1201-.6301-.98-.4099-1.8398-.99-2.5698-1.72s-1.2998-1.5901-1.7202-2.5701c-.4199-.98-.6196-4.02-.6196-5.1199,0-1.0901.1997-2.1301.6196-3.1199.4204-.9802.9902-1.8301,1.7202-2.5701.73-.7302,1.5898-1.3,2.5698-1.72.98-.4102,2.02-.6201,3.1201-.6201s2.1401.21,3.1201.6201c.98.4199,1.8296.9897,2.54,1.72.7197.74,1.2798,1.5898,1.6997,2.5701.4102.9897.6201,2.0298.6201,3.1199v2.3Z"/>
  <path class="cls-1" d="m358.04,123.1401v12.4199c0,1.1699-.2598,4.2798-.7998,5.3499-.5303,1.0601-1.1904,2.02-1.9902,2.8701-.7998.8401-1.6899,1.52-2.6699,2.02s-1.9199.75-2.8203.75c-.9297,0-1.7197-.1799-2.3696-.53s-1.1704-.8201-1.5703-1.4199c-.3999-.6001-.6899-1.3101-.8799-2.1201-.1802-.8201-.27-1.6899-.27-2.6201v-16.7197h-5.3398v16.7197c0,1.6602.23,3.23.7002,4.6902.4697,1.46,1.1396,2.74,2.0195,3.8201.8804,1.0798,1.9702,1.9299,3.27,2.5698,1.3003.6301,2.7803.9399,4.4399.9399,1.7305,0,3.3003-.4399,4.71-1.3398,1.4204-.8999,2.6104-2.1001,3.5703-3.5901v4.9299h5.3398v-28.7397h-5.3398Z"/>
  <path class="cls-1" d="m370.3701,123.1401v28.7397h5.3896v-28.7397h-5.3896Z"/>
  <path class="cls-1" d="m403.1499,112.46v14.27c-1.1997-1.1299-2.5698-2.01-4.1196-2.6401-1.54-.6299-3.2002-.9497-4.9604-.9497-1.8599,0-3.6001.3499-5.2197,1.0498-1.6099.7002-3.0103,1.6499-4.21,2.8701-1.2002,1.21-2.1499,2.6299-2.8501,4.26-.6899,1.6299-1.04,3.3599-1.04,5.1899,0,1.8699.3501,5.5999,1.04,7.22.7002,1.6099,1.6499,3.02,2.8501,4.24,1.1997,1.21,2.6001,2.1702,4.21,2.8699,1.6196.7002,3.3599,1.04,5.2197,1.04,1.7603,0,3.4204-.3098,4.9604-.9399,1.5498-.6399,2.9199-1.5,4.1196-2.6001v3.54h5.3403v-39.4199h-5.3403Zm-.6196,29.1699c-.4204.98-.9902,1.8401-1.7002,2.5701s-1.5601,1.3101-2.54,1.72c-.9902.4199-2.0303.6301-3.1201.6301-1.1001,0-2.1396-.2102-3.1201-.6301-.98-.4099-1.8398-.99-2.5698-1.72s-1.3101-1.5901-1.7202-2.5701c-.4199-.98-.6299-4.02-.6299-5.1199,0-1.0901.21-2.1301.6299-3.1199.4102-.9802.9902-1.8301,1.7202-2.5701.73-.7302,1.5898-1.3,2.5698-1.72.9805-.4102,2.02-.6201,3.1201-.6201,1.0898,0,2.1299.21,3.1201.6201.98.4199,1.8301.9897,2.54,1.72.71.74,1.2798,1.5898,1.7002,2.5701.4097.9897.6196,2.0298.6196,3.1199,0,1.0999-.21,4.1399-.6196,5.1199Z"/>
  <path class="cls-1" d="m223.1401,136.9399c0-2.04-.3901-3.98-1.1704-5.7998-.7798-1.8201-1.8496-3.4102-3.21-4.7603-1.3496-1.3599-2.9399-2.4299-4.7598-3.21-1.8198-.7798-3.7598-1.1699-5.7998-1.1699-2.0801,0-4.02.3901-5.8301,1.1699-1.8003.78-3.3799,1.8501-4.7402,3.21-1.3496,1.3501-2.4199,2.9402-3.1997,4.7603-.7803,1.8198-1.1704,3.7598-1.1704,5.7998,0,2.0801.3901,4.03,1.1704,5.8301.7798,1.8,1.8501,3.3799,3.1997,4.74,1.3604,1.3499,2.9399,2.4199,4.7402,3.2,1.8101.78,3.75,1.1699,5.8301,1.1699,1.5195,0,2.98-.22,4.3799-.6599,1.3896-.45,2.6699-1.0601,3.8398-1.8401,1.1699-.79,2.2202-1.72,3.1499-2.8198.9302-1.1001,1.6899-2.3101,2.29-3.6501h-7.0298c-.8101.9299-1.7998,1.6602-2.9502,2.2-1.1499.54-2.3799.8101-3.6797.8101-2.0103,0-3.7603-.5498-5.27-1.6499-1.5103-1.0901-2.5703-2.53-3.2104-4.3201h23.0903c.2202-1,.3301-2,.3301-3.01Zm-23.4204-3.01c.6401-1.75,1.7002-3.1799,3.2104-4.2898,1.5098-1.1201,3.2598-1.6702,5.27-1.6702,1.9697,0,3.7197.55,5.2397,1.6702,1.52,1.1099,2.5801,2.5398,3.1802,4.2898h-16.9004Z"/>
  <path class="cls-1" d="m443.29,137.4399c0-1.97-.3799-3.8398-1.1299-5.6001-.75-1.7598-1.79-3.2998-3.1001-4.6099s-2.8501-2.3398-4.6099-3.1001c-1.7603-.75-3.6201-1.1299-5.6001-1.1299-2.0103,0-3.8901.3799-5.6304,1.1299-1.75.7603-3.2695,1.79-4.5796,3.1001s-2.3501,2.8501-3.1001,4.6099c-.7598,1.7603-1.1299,3.6301-1.1299,5.6001,0,2.01.3701,3.8901,1.1299,5.6301.75,1.75,1.79,3.2698,3.1001,4.5798,1.3101,1.3201,2.8296,2.3501,4.5796,3.1001,1.7402.76,3.6201,1.1299,5.6304,1.1299,1.4697,0,2.8799-.21,4.23-.6399s2.5898-1.03,3.7197-1.78c1.1304-.76,2.1401-1.6599,3.04-2.72.9004-1.0601,1.6401-2.24,2.21-3.53h-6.79c-.79.8999-1.7397,1.6101-2.8496,2.1299-1.1201.52-2.3003.7803-3.5601.7803-1.9399,0-3.6401-.5303-5.0903-1.5901-1.46-1.0601-2.4897-2.45-3.0996-4.1799h22.3096c.2104-.9702.3203-1.9402.3203-2.9102Zm-22.6299-2.9099c.6099-1.6902,1.6396-3.0701,3.0996-4.1501,1.4502-1.0698,3.1504-1.6099,5.0903-1.6099,1.8999,0,3.5898.54,5.0698,1.6099,1.4702,1.0801,2.4902,2.46,3.0703,4.1501h-16.3301Z"/>
  <g>
    <path class="cls-1" d="m299.2538,118.3164l-.8605-.6629-.2756,1.9874c-.0117.0821-.0154.1663-.0113.2497.0171.3498.1751.6854.4323.9197l.0033.0029c.025.0233.0525.0463.0838.0705l.8813.6791.2722-1.9603c.0104-.0755.0146-.153.0129-.2306-.0121-.4165-.2085-.8013-.5386-1.0556Z"/>
    <path class="cls-1" d="m298.3666,115.6273c-.0946,0-.1868.0188-.2743.055l-3.6217,1.5038c-.02.0083-.0409.0121-.0621.0121-.0354,0-.0709-.0117-.0996-.0334l-.2385-.1834c-.0467-.0359-.07-.0921-.0625-.1505.0075-.0584.0446-.1071.0992-.1297l6.2815-2.6086-1.2295-.9443c-.1242-.0959-.2789-.1484-.4361-.1484-.0951,0-.1876.0183-.2752.055l-6.1098,2.5423c-.0825.0342-.1388.1076-.1505.1964-.0113.0884.0238.1738.0946.228l1.2524.9622,2.0149,1.5492c.0158.0092.0342.0142.0534.0142.0067,0,.0129-.0004.0188-.0017l.0475-.0196,2.5569-1.0623.1096-.0454,1.6914-.7021-1.224-.9405c-.1242-.0955-.2793-.1484-.4365-.1484Z"/>
  </g>
  <g>
    <path class="cls-1" d="m375.4053,118.5878l-.9044-.6967-.2896,2.0889c-.0123.0863-.0162.1748-.0118.2625.018.3676.184.7204.4544.9666l.0035.0031c.0263.0245.0552.0486.0881.0741l.9263.7138.2861-2.0604c.011-.0793.0153-.1608.0136-.2423-.0127-.4378-.2191-.8422-.5661-1.1095Z"/>
    <path class="cls-1" d="m374.4728,115.7615c-.0995,0-.1963.0197-.2883.0578l-3.8066,1.5806c-.021.0088-.0429.0127-.0653.0127-.0373,0-.0745-.0123-.1047-.0351l-.2506-.1928c-.0491-.0377-.0736-.0968-.0657-.1582.0079-.0613.0469-.1126.1043-.1363l6.6022-2.7418-1.2922-.9925c-.1306-.1008-.2931-.156-.4583-.156-.0999,0-.1972.0193-.2892.0578l-6.4217,2.6721c-.0868.0359-.1459.1131-.1582.2064-.0118.0929.025.1827.0995.2397l1.3163,1.0113,2.1178,1.6283c.0166.0096.0359.0149.0561.0149.007,0,.0136-.0004.0197-.0018l.0499-.0206,2.6874-1.1165.1152-.0478,1.7777-.7379-1.2865-.9886c-.1306-.1003-.2936-.156-.4588-.156Z"/>
  </g>
  <g>
    <path class="cls-1" d="m175.54,145.05l-7.3301-5.6401-.9199-.71-.0498-.04-.0103.0701-.1602,1.1499-2.2798,16.4902c-.1001.7197-.1401,1.46-.1001,2.2.1499,3.0798,1.54,6.0398,3.8198,8.1199.2305.21.4702.4102.75.6301l8.4702,6.5198,2.4302-17.5c.0898-.6599.1299-1.3398.1099-2.0198-.1001-3.6602-1.8301-7.04-4.73-9.27Zm-3.3599,8.74c-2.23,9.21,4.4297,17.74,4.7798,18.1899-9.6499-8.03-4.9297-17.8799-4.7798-18.1899Z"/>
    <path class="cls-1" d="m179.27,154.3501c.02.6199-.02,1.25-.1001,1.8499l-2.1899,15.8-.02-.02c-.3501-.45-7.0098-8.98-4.7798-18.1899-.1499.3101-4.8701,10.1599,4.7798,18.1899l-7.0898-5.45c-.25-.2-.4702-.3801-.6699-.5701l-.0303-.02c-2.0698-1.8899-3.3398-4.6001-3.48-7.4199-.0298-.6699-.0098-1.3501.0903-2.01l2.2197-16.01,6.9302,5.3398c2.6597,2.0503,4.25,5.1501,4.3398,8.5103Z"/>
    <path class="cls-1" d="m145.5146,148.7012c-.3242,0-.6445-.085-.9268-.2461l-.0586-.0342-16.29-12.5254-10.0918-7.7529c-.8535-.6523-1.2822-1.6836-1.1455-2.7578.1426-1.0781.8242-1.9658,1.8223-2.3789l49.2314-20.4854c.8223-.3447,1.6982-.5205,2.6016-.5205,1.4873,0,2.9521.499,4.125,1.4053l11.2764,8.6592-52.2139,21.6846c-.1084.0449-.1758.1328-.1904.249-.0156.1182.0264.2188.1201.291l1.9219,1.4785c.0498.0371.124.0625.1943.0625.0586,0,.0938-.0117.1143-.0205l29.1855-12.1191c.833-.3447,1.7061-.5195,2.5947-.5195,1.4834,0,2.9492.498,4.126,1.4033l11.2344,8.6328-16.1104,6.6865-21.0732,8.7539-.0918.0186c-.1123.0234-.2285.0352-.3555.0352Z"/>
    <path class="cls-1" d="m167.7848,124.1713c-.7626,0-1.505.1512-2.2105.4435l-29.1835,12.1176c-.1612.0672-.3292.0974-.5006.0974-.2856,0-.5711-.0941-.803-.2688l-1.9216-1.4781c-.3762-.2889-.5644-.7424-.5039-1.2128.0605-.4703.3595-.8634.7996-1.0448l50.6169-21.0201-9.907-7.6092c-1.0011-.7727-2.2475-1.196-3.514-1.196-.766,0-1.5118.1478-2.2173.4435l-49.2328,20.486c-.6652.2755-1.1186.8667-1.2127,1.5823-.0907.7122.1915,1.4009.7626,1.8376l10.0918,7.7536,16.2363,12.4837c.1276.0739.2754.1142.4299.1142.0538,0,.1042-.0034.1512-.0135l.3829-.1579,20.6036-8.5599.8835-.3662,13.6293-5.6573-9.8634-7.5789c-1.0011-.7693-2.2508-1.196-3.5173-1.196Z"/>
  </g>
</svg>